<svg xmlns="http://www.w3.org/2000/svg" viewBox="0 0 1920 1080" width="1920" height="1080" role="img" aria-label="Skyline noturno de uma metropole global">
  <defs>
    <linearGradient id="sky" x1="0" y1="0" x2="0" y2="1">
      <stop offset="0" stop-color="#050506"/>
      <stop offset="0.42" stop-color="#0B0A0C"/>
      <stop offset="0.72" stop-color="#1A1512"/>
      <stop offset="0.9" stop-color="#3A2A18"/>
      <stop offset="1" stop-color="#57391C"/>
    </linearGradient>
    <radialGradient id="haze" cx="0.58" cy="0.88" r="0.95">
      <stop offset="0" stop-color="#E6B968" stop-opacity="0.5"/>
      <stop offset="0.45" stop-color="#B07C33" stop-opacity="0.22"/>
      <stop offset="1" stop-color="#000000" stop-opacity="0"/>
    </radialGradient>
    <radialGradient id="glow2" cx="0.2" cy="0.78" r="0.5">
      <stop offset="0" stop-color="#C9A15B" stop-opacity="0.22"/>
      <stop offset="1" stop-color="#000000" stop-opacity="0"/>
    </radialGradient>
    <linearGradient id="fogFar" x1="0" y1="0" x2="0" y2="1">
      <stop offset="0" stop-color="#0E0D0F" stop-opacity="0"/>
      <stop offset="1" stop-color="#7A5426" stop-opacity="0.38"/>
    </linearGradient>
    <linearGradient id="vig" x1="0" y1="0" x2="0" y2="1">
      <stop offset="0" stop-color="#000" stop-opacity="0.72"/>
      <stop offset="0.35" stop-color="#000" stop-opacity="0.05"/>
      <stop offset="0.8" stop-color="#000" stop-opacity="0.25"/>
      <stop offset="1" stop-color="#000" stop-opacity="0.78"/>
    </linearGradient>
    
  <filter id="grain" x="0" y="0" width="100%" height="100%">
    <feTurbulence type="fractalNoise" baseFrequency="0.85" numOctaves="3" seed="7" result="n"/>
    <feColorMatrix in="n" type="saturate" values="0"/>
    <feComponentTransfer><feFuncA type="linear" slope="0.5"/></feComponentTransfer>
  </filter>
  </defs>

  <rect width="1920" height="1080" fill="url(#sky)"/>
  <g opacity="0.5">
    <circle cx="1290" cy="196" r="1.6" fill="#F2E9D8" opacity="0.7"/>
    <circle cx="410" cy="132" r="1.2" fill="#F2E9D8" opacity="0.5"/>
    <circle cx="820" cy="88" r="1" fill="#F2E9D8" opacity="0.4"/>
    <circle cx="1620" cy="260" r="1.3" fill="#F2E9D8" opacity="0.45"/>
  </g>
  <rect width="1920" height="1080" fill="url(#haze)"/>
  <rect width="1920" height="1080" fill="url(#glow2)"/>

  <!-- camada distante -->
  <g opacity="0.55"><path d="M-40 880V699.91H37.72V880ZM52.52 880V776.4H131.88V880ZM143.48 880V646.6H219.24V880ZM232.7 880V759.65H288.67V880ZM299.69 880V768.33H381.81V880ZM393.15 880V653.08H491.49V880ZM504.48 880V802.34L515.57 780.44H554.99L566.08 802.34V880ZM576.46 880V663.6H631.55V880ZM644.15 880V790.81L661.87 765.65H724.85L742.57 790.81V880ZM691.76 765.65H694.96V739.46H691.76ZM753.65 880V776.96H801.23V880ZM775.84 776.96H779.04V756.57H775.84ZM813.44 880V704.66H876.21V880ZM889.36 880V750.86L898.14 714.43H929.38L938.16 750.86V880ZM949.58 880V763L963.06 730H1011L1024.48 763V880ZM1035.84 880V738.94H1128.93V880ZM1143.66 880V769.84H1199.59V880ZM1208.6 880V759.72L1221 725.8H1265.09L1277.49 759.72V880ZM1241.44 725.8H1244.64V693.4H1241.44ZM1290.53 880V633.81H1362V880ZM1372.46 880V788.54H1450.36V880ZM1409.81 788.54H1413.01V760.64H1409.81ZM1461.63 880V776.44H1515.29V880ZM1527.4 880V735.58L1536.83 694.85H1570.38L1579.81 735.58V880ZM1595.5 880V687.36H1678.59V880ZM1687.34 880V723.5L1702.89 679.36H1758.2L1773.75 723.5V880ZM1728.94 679.36H1732.14V656.65H1728.94ZM1782.83 880V680.02H1837.36V880ZM1808.5 680.02H1811.7V640.79H1808.5ZM1852.76 880V660.68H1922.1V880ZM1932.4 880V706.3H2019.57V880Z" fill="#1B1712"/></g>
  <rect x="0" y="580" width="1920" height="300" fill="url(#fogFar)"/>

  <!-- camada media -->
  <g><path d="M-40 920V720.92H28.32V920ZM37.42 920V666.91H114.94V920ZM121.23 920V794.19L138.89 758.7H201.7L219.36 794.19V920ZM233.08 920V654.06L248.74 579.05H304.41L320.07 654.06V920ZM332.82 920V688.68H438.11V920ZM446.39 920V741.22H506.22V920ZM514.99 920V678.58H579.55V920ZM592.6 920V669.56L611.42 598.93H678.33L697.15 669.56V920ZM707.41 920V778.56L727.12 738.66H797.18L816.89 778.56V920ZM825.22 920V565.63H881.69V920ZM889 920V701.68H984.28V920ZM994.99 920V568.47H1056.8V920ZM1066.43 920V616.67L1078.64 531.12H1122.04L1134.25 616.67V920ZM1142.67 920V737.64L1163.04 686.21H1235.49L1255.86 737.64V920ZM1197.67 686.21H1200.87V657.06H1197.67ZM1264.94 920V644.49H1350.66V920ZM1306.2 644.49H1309.4V620.31H1306.2ZM1360.26 920V721.05L1372.35 664.93H1415.36L1427.45 721.05V920ZM1392.26 664.93H1395.46V632.9H1392.26ZM1437.49 920V746.43H1517.8V920ZM1528.54 920V611.07H1612.75V920ZM1626.73 920V714.18H1722.96V920ZM1732.51 920V627.29L1750.51 544.73H1814.5L1832.5 627.29V920ZM1842.27 920V536.39H1945.79V920ZM1956.28 920V731.79L1974.33 678.7H2038.52L2056.57 731.79V920ZM2004.83 678.7H2008.03V643.77H2004.83ZM1190.4 920V420.8L1198.68 280H1228.12L1236.4 420.8V920ZM1211.8 280H1215V100.8H1211.8ZM1305.6 920V514.4L1311 400H1330.2L1335.6 514.4V920ZM1319 400H1322.2V254.4H1319Z" fill="#100E0F"/>
     <g opacity="0.5"><rect x="-11.4" y="738.52" width="5.5" height="9.35" fill="#E8C87E" opacity="0.59"/><rect x="7.3" y="738.52" width="5.5" height="9.35" fill="#E8C87E" opacity="0.82"/><rect x="-30.1" y="884.82" width="5.5" height="9.35" fill="#E8C87E" opacity="0.91"/><rect x="103.42" y="684.51" width="5.5" height="9.35" fill="#E8C87E" opacity="0.26"/><rect x="103.42" y="726.31" width="5.5" height="9.35" fill="#E8C87E" opacity="0.53"/><rect x="103.42" y="830.81" width="5.5" height="9.35" fill="#E8C87E" opacity="0.3"/><rect x="187.23" y="776.3" width="5.5" height="9.35" fill="#E8C87E" opacity="0.56"/><rect x="131.13" y="880.8" width="5.5" height="9.35" fill="#E8C87E" opacity="0.89"/><rect x="205.93" y="880.8" width="5.5" height="9.35" fill="#E8C87E" opacity="0.75"/><rect x="242.98" y="596.65" width="5.5" height="9.35" fill="#E8C87E" opacity="0.37"/><rect x="242.98" y="722.05" width="5.5" height="9.35" fill="#E8C87E" opacity="0.6"/><rect x="280.38" y="784.75" width="5.5" height="9.35" fill="#E8C87E" opacity="0.5"/><rect x="242.98" y="826.55" width="5.5" height="9.35" fill="#E8C87E" opacity="0.66"/><rect x="299.08" y="868.35" width="5.5" height="9.35" fill="#E8C87E" opacity="0.4"/><rect x="398.82" y="706.28" width="5.5" height="9.35" fill="#E8C87E" opacity="0.99"/><rect x="361.42" y="727.18" width="5.5" height="9.35" fill="#E8C87E" opacity="0.61"/><rect x="474.99" y="758.82" width="5.5" height="9.35" fill="#E8C87E" opacity="0.4"/><rect x="493.69" y="842.42" width="5.5" height="9.35" fill="#E8C87E" opacity="0.88"/><rect x="456.29" y="905.12" width="5.5" height="9.35" fill="#E8C87E" opacity="0.42"/><rect x="562.29" y="696.18" width="5.5" height="9.35" fill="#E8C87E" opacity="0.92"/><rect x="543.59" y="758.88" width="5.5" height="9.35" fill="#E8C87E" opacity="0.58"/><rect x="543.59" y="905.18" width="5.5" height="9.35" fill="#E8C87E" opacity="0.5"/><rect x="602.5" y="721.03" width="5.5" height="9.35" fill="#E8C87E" opacity="0.45"/><rect x="621.2" y="825.53" width="5.5" height="9.35" fill="#E8C87E" opacity="0.35"/><rect x="602.5" y="846.43" width="5.5" height="9.35" fill="#E8C87E" opacity="0.45"/><rect x="621.2" y="867.33" width="5.5" height="9.35" fill="#E8C87E" opacity="0.26"/><rect x="602.5" y="888.23" width="5.5" height="9.35" fill="#E8C87E" opacity="0.35"/><rect x="754.71" y="756.26" width="5.5" height="9.35" fill="#E8C87E" opacity="0.31"/><rect x="773.41" y="756.26" width="5.5" height="9.35" fill="#E8C87E" opacity="0.56"/><rect x="773.41" y="881.66" width="5.5" height="9.35" fill="#E8C87E" opacity="0.34"/><rect x="835.12" y="604.13" width="5.5" height="9.35" fill="#E8C87E" opacity="0.84"/><rect x="835.12" y="729.53" width="5.5" height="9.35" fill="#E8C87E" opacity="0.69"/><rect x="835.12" y="854.93" width="5.5" height="9.35" fill="#E8C87E" opacity="0.38"/><rect x="898.9" y="865.58" width="5.5" height="9.35" fill="#E8C87E" opacity="0.93"/><rect x="1042.29" y="648.77" width="5.5" height="9.35" fill="#E8C87E" opacity="0.38"/><rect x="1042.29" y="815.97" width="5.5" height="9.35" fill="#E8C87E" opacity="0.79"/><rect x="1042.29" y="836.87" width="5.5" height="9.35" fill="#E8C87E" opacity="0.56"/><rect x="1042.29" y="899.57" width="5.5" height="9.35" fill="#E8C87E" opacity="0.99"/><rect x="1095.03" y="778.62" width="5.5" height="9.35" fill="#E8C87E" opacity="0.7"/><rect x="1076.33" y="841.32" width="5.5" height="9.35" fill="#E8C87E" opacity="0.33"/><rect x="1171.27" y="724.71" width="5.5" height="9.35" fill="#E8C87E" opacity="0.88"/><rect x="1227.37" y="724.71" width="5.5" height="9.35" fill="#E8C87E" opacity="0.53"/><rect x="1171.27" y="808.31" width="5.5" height="9.35" fill="#E8C87E" opacity="0.81"/><rect x="1189.97" y="829.21" width="5.5" height="9.35" fill="#E8C87E" opacity="0.91"/><rect x="1330.94" y="682.99" width="5.5" height="9.35" fill="#E8C87E" opacity="0.84"/><rect x="1274.84" y="745.69" width="5.5" height="9.35" fill="#E8C87E" opacity="0.91"/><rect x="1330.94" y="808.39" width="5.5" height="9.35" fill="#E8C87E" opacity="0.6"/><rect x="1293.54" y="871.09" width="5.5" height="9.35" fill="#E8C87E" opacity="0.54"/><rect x="1407.56" y="807.93" width="5.5" height="9.35" fill="#E8C87E" opacity="0.79"/><rect x="1388.86" y="849.73" width="5.5" height="9.35" fill="#E8C87E" opacity="0.77"/><rect x="1447.39" y="805.83" width="5.5" height="9.35" fill="#E8C87E" opacity="0.59"/><rect x="1503.49" y="889.43" width="5.5" height="9.35" fill="#E8C87E" opacity="0.37"/><rect x="1594.54" y="733.17" width="5.5" height="9.35" fill="#E8C87E" opacity="0.51"/><rect x="1557.14" y="754.07" width="5.5" height="9.35" fill="#E8C87E" opacity="0.91"/><rect x="1538.44" y="774.97" width="5.5" height="9.35" fill="#E8C87E" opacity="0.39"/><rect x="1575.84" y="858.57" width="5.5" height="9.35" fill="#E8C87E" opacity="0.27"/><rect x="1575.84" y="900.37" width="5.5" height="9.35" fill="#E8C87E" opacity="0.36"/><rect x="1692.73" y="794.48" width="5.5" height="9.35" fill="#E8C87E" opacity="0.72"/><rect x="1636.63" y="857.18" width="5.5" height="9.35" fill="#E8C87E" opacity="0.48"/><rect x="1711.43" y="878.08" width="5.5" height="9.35" fill="#E8C87E" opacity="0.92"/><rect x="1761.11" y="562.33" width="5.5" height="9.35" fill="#E8C87E" opacity="0.65"/><rect x="1798.51" y="625.03" width="5.5" height="9.35" fill="#E8C87E" opacity="0.48"/><rect x="1779.81" y="666.83" width="5.5" height="9.35" fill="#E8C87E" opacity="0.96"/><rect x="1870.87" y="637.59" width="5.5" height="9.35" fill="#E8C87E" opacity="0.96"/><rect x="1908.27" y="679.39" width="5.5" height="9.35" fill="#E8C87E" opacity="0.42"/><rect x="1852.17" y="700.29" width="5.5" height="9.35" fill="#E8C87E" opacity="0.96"/><rect x="1908.27" y="700.29" width="5.5" height="9.35" fill="#E8C87E" opacity="0.47"/><rect x="1870.87" y="721.19" width="5.5" height="9.35" fill="#E8C87E" opacity="0.81"/><rect x="1870.87" y="762.99" width="5.5" height="9.35" fill="#E8C87E" opacity="0.49"/><rect x="1984.88" y="717.2" width="5.5" height="9.35" fill="#E8C87E" opacity="0.42"/><rect x="2022.28" y="717.2" width="5.5" height="9.35" fill="#E8C87E" opacity="0.35"/><rect x="2022.28" y="800.8" width="5.5" height="9.35" fill="#E8C87E" opacity="0.29"/><rect x="1984.88" y="821.7" width="5.5" height="9.35" fill="#E8C87E" opacity="0.3"/><rect x="1200.3" y="778.3" width="5.5" height="9.35" fill="#E8C87E" opacity="0.51"/><rect x="1219" y="778.3" width="5.5" height="9.35" fill="#E8C87E" opacity="0.93"/><rect x="1219" y="861.9" width="5.5" height="9.35" fill="#E8C87E" opacity="0.72"/><rect x="1315.5" y="605.7" width="5.5" height="9.35" fill="#E8C87E" opacity="0.28"/><rect x="1315.5" y="752" width="5.5" height="9.35" fill="#E8C87E" opacity="0.52"/></g>
  </g>

  <!-- camada proxima -->
  <g><path d="M-40 1010V739.16H94.65V1010ZM110.66 1010V554.38H247.71V1010ZM264.22 1010V745.17H353.23V1010ZM369.58 1010V623.82L391.38 514.9H468.87L490.67 623.82V1010ZM507.83 1010V796.82L534.76 736.69H630.53L657.46 796.82V1010ZM675.7 1010V652.05L700.04 551.09H786.57L810.91 652.05V1010ZM830.88 1010V759.73H929.06V1010ZM941.15 1010V579.51H1048.31V1010ZM1064.87 1010V603.62H1202.8V1010ZM1216.4 1010V661.35H1375.02V1010ZM1389.61 1010V760.06H1545.6V1010ZM1559.89 1010V485.81H1683.81V1010ZM1620.25 485.81H1623.45V452.02H1620.25ZM1702.29 1010V757.56H1799.49V1010ZM1816.92 1010V720.71H1946.1V1010ZM1879.91 720.71H1883.11V702.63H1879.91ZM1959.97 1010V662.59H2125.18V1010ZM364.8 1010V464L375.96 310H415.64L426.8 464V1010ZM394.2 310H397.4V114H394.2Z" fill="#070607"/>
     <g opacity="0.75"><rect x="38" y="809.36" width="6.5" height="11.05" fill="#E8C87E" opacity="0.6"/><rect x="-28.3" y="858.76" width="6.5" height="11.05" fill="#E8C87E" opacity="0.85"/><rect x="15.9" y="982.26" width="6.5" height="11.05" fill="#E8C87E" opacity="0.95"/><rect x="122.36" y="599.88" width="6.5" height="11.05" fill="#E8C87E" opacity="0.51"/><rect x="210.76" y="624.58" width="6.5" height="11.05" fill="#E8C87E" opacity="0.8"/><rect x="188.66" y="772.78" width="6.5" height="11.05" fill="#E8C87E" opacity="0.57"/><rect x="144.46" y="797.48" width="6.5" height="11.05" fill="#E8C87E" opacity="0.86"/><rect x="122.36" y="871.58" width="6.5" height="11.05" fill="#E8C87E" opacity="0.71"/><rect x="166.56" y="871.58" width="6.5" height="11.05" fill="#E8C87E" opacity="0.36"/><rect x="144.46" y="920.98" width="6.5" height="11.05" fill="#E8C87E" opacity="0.42"/><rect x="210.76" y="920.98" width="6.5" height="11.05" fill="#E8C87E" opacity="0.83"/><rect x="210.76" y="970.38" width="6.5" height="11.05" fill="#E8C87E" opacity="0.74"/><rect x="469.68" y="535.7" width="6.5" height="11.05" fill="#E8C87E" opacity="0.71"/><rect x="447.58" y="659.2" width="6.5" height="11.05" fill="#E8C87E" opacity="0.57"/><rect x="381.28" y="683.9" width="6.5" height="11.05" fill="#E8C87E" opacity="0.82"/><rect x="469.68" y="708.6" width="6.5" height="11.05" fill="#E8C87E" opacity="0.46"/><rect x="447.58" y="782.7" width="6.5" height="11.05" fill="#E8C87E" opacity="0.67"/><rect x="425.48" y="832.1" width="6.5" height="11.05" fill="#E8C87E" opacity="0.82"/><rect x="403.38" y="856.8" width="6.5" height="11.05" fill="#E8C87E" opacity="0.69"/><rect x="519.53" y="806.89" width="6.5" height="11.05" fill="#E8C87E" opacity="0.47"/><rect x="607.93" y="806.89" width="6.5" height="11.05" fill="#E8C87E" opacity="0.87"/><rect x="563.73" y="905.69" width="6.5" height="11.05" fill="#E8C87E" opacity="0.68"/><rect x="585.83" y="905.69" width="6.5" height="11.05" fill="#E8C87E" opacity="0.29"/><rect x="585.83" y="955.09" width="6.5" height="11.05" fill="#E8C87E" opacity="0.98"/><rect x="753.7" y="645.99" width="6.5" height="11.05" fill="#E8C87E" opacity="0.85"/><rect x="753.7" y="720.09" width="6.5" height="11.05" fill="#E8C87E" opacity="0.86"/><rect x="687.4" y="769.49" width="6.5" height="11.05" fill="#E8C87E" opacity="0.26"/><rect x="709.5" y="769.49" width="6.5" height="11.05" fill="#E8C87E" opacity="0.47"/><rect x="775.8" y="843.59" width="6.5" height="11.05" fill="#E8C87E" opacity="0.68"/><rect x="775.8" y="892.99" width="6.5" height="11.05" fill="#E8C87E" opacity="0.67"/><rect x="886.78" y="780.53" width="6.5" height="11.05" fill="#E8C87E" opacity="0.62"/><rect x="908.88" y="904.03" width="6.5" height="11.05" fill="#E8C87E" opacity="0.98"/><rect x="1019.15" y="649.71" width="6.5" height="11.05" fill="#E8C87E" opacity="0.52"/><rect x="997.05" y="921.41" width="6.5" height="11.05" fill="#E8C87E" opacity="0.76"/><rect x="997.05" y="946.11" width="6.5" height="11.05" fill="#E8C87E" opacity="0.69"/><rect x="997.05" y="970.81" width="6.5" height="11.05" fill="#E8C87E" opacity="0.92"/><rect x="1019.15" y="970.81" width="6.5" height="11.05" fill="#E8C87E" opacity="0.64"/><rect x="1120.77" y="747.92" width="6.5" height="11.05" fill="#E8C87E" opacity="0.93"/><rect x="1120.77" y="772.62" width="6.5" height="11.05" fill="#E8C87E" opacity="0.36"/><rect x="1164.97" y="772.62" width="6.5" height="11.05" fill="#E8C87E" opacity="0.85"/><rect x="1187.07" y="772.62" width="6.5" height="11.05" fill="#E8C87E" opacity="0.69"/><rect x="1076.57" y="797.32" width="6.5" height="11.05" fill="#E8C87E" opacity="0.81"/><rect x="1164.97" y="822.02" width="6.5" height="11.05" fill="#E8C87E" opacity="0.7"/><rect x="1076.57" y="871.42" width="6.5" height="11.05" fill="#E8C87E" opacity="0.73"/><rect x="1120.77" y="945.52" width="6.5" height="11.05" fill="#E8C87E" opacity="0.37"/><rect x="1098.67" y="994.92" width="6.5" height="11.05" fill="#E8C87E" opacity="0.45"/><rect x="1187.07" y="994.92" width="6.5" height="11.05" fill="#E8C87E" opacity="0.81"/><rect x="1250.2" y="756.25" width="6.5" height="11.05" fill="#E8C87E" opacity="0.96"/><rect x="1316.5" y="879.75" width="6.5" height="11.05" fill="#E8C87E" opacity="0.32"/><rect x="1316.5" y="929.15" width="6.5" height="11.05" fill="#E8C87E" opacity="0.68"/><rect x="1316.5" y="953.85" width="6.5" height="11.05" fill="#E8C87E" opacity="0.33"/><rect x="1360.7" y="978.55" width="6.5" height="11.05" fill="#E8C87E" opacity="0.38"/><rect x="1423.41" y="830.26" width="6.5" height="11.05" fill="#E8C87E" opacity="0.51"/><rect x="1423.41" y="953.76" width="6.5" height="11.05" fill="#E8C87E" opacity="0.83"/><rect x="1445.51" y="953.76" width="6.5" height="11.05" fill="#E8C87E" opacity="0.72"/><rect x="1571.59" y="506.61" width="6.5" height="11.05" fill="#E8C87E" opacity="0.5"/><rect x="1637.89" y="506.61" width="6.5" height="11.05" fill="#E8C87E" opacity="0.33"/><rect x="1659.99" y="506.61" width="6.5" height="11.05" fill="#E8C87E" opacity="0.82"/><rect x="1637.89" y="556.01" width="6.5" height="11.05" fill="#E8C87E" opacity="0.64"/><rect x="1659.99" y="580.71" width="6.5" height="11.05" fill="#E8C87E" opacity="0.68"/><rect x="1593.69" y="605.41" width="6.5" height="11.05" fill="#E8C87E" opacity="0.47"/><rect x="1615.79" y="630.11" width="6.5" height="11.05" fill="#E8C87E" opacity="0.96"/><rect x="1637.89" y="803.01" width="6.5" height="11.05" fill="#E8C87E" opacity="0.47"/><rect x="1571.59" y="852.41" width="6.5" height="11.05" fill="#E8C87E" opacity="0.78"/><rect x="1780.29" y="877.16" width="6.5" height="11.05" fill="#E8C87E" opacity="0.37"/><rect x="1917.02" y="815.61" width="6.5" height="11.05" fill="#E8C87E" opacity="0.31"/><rect x="1872.82" y="865.01" width="6.5" height="11.05" fill="#E8C87E" opacity="0.96"/><rect x="2060.07" y="880.99" width="6.5" height="11.05" fill="#E8C87E" opacity="0.32"/><rect x="398.6" y="627.2" width="6.5" height="11.05" fill="#E8C87E" opacity="0.87"/><rect x="376.5" y="849.5" width="6.5" height="11.05" fill="#E8C87E" opacity="0.76"/></g>
  </g>

  <!-- reflexo / asfalto -->
  <rect x="0" y="1010" width="1920" height="70" fill="#050505"/>
  <rect x="0" y="1010" width="1920" height="70" fill="#C9A15B" opacity="0.05"/>

  <rect width="1920" height="1080" fill="url(#vig)"/>
  <rect width="1920" height="1080" filter="url(#grain)" opacity="0.35" style="mix-blend-mode:overlay"/>
</svg>
